<svg width="32" height="32" viewBox="0 0 32 32" fill="none" xmlns="http://www.w3.org/2000/svg">
<path fill-rule="evenodd" clip-rule="evenodd" d="M16.0004 0C22.5176 3.38477e-05 27.8008 5.28326 27.8008 11.8004C27.8008 14.0136 27.1915 16.0846 26.1316 17.8546L16.6774 31.6433C16.3513 32.1189 15.6494 32.1189 15.3233 31.6433L5.86921 17.8546C4.80921 16.0846 4.19995 14.0136 4.19995 11.8004C4.19995 5.28323 9.48319 0 16.0004 0ZM16.0004 9.8508C14.1302 9.8508 12.6142 11.3669 12.6142 13.237C12.6142 15.1072 14.1302 16.6232 16.0004 16.6232C17.8705 16.6232 19.3866 15.1071 19.3866 13.237C19.3866 11.3669 17.8705 9.85083 16.0004 9.8508Z" fill="url(#paint0_linear_65_493)"/>
<circle cx="16.0005" cy="13.2369" r="3.38621" fill="#77D993"/>
<defs>
<linearGradient id="paint0_linear_65_493" x1="16.0004" y1="0" x2="16.0004" y2="32" gradientUnits="userSpaceOnUse">
<stop stop-color="#2E3A4D"/>
<stop offset="0.3" stop-color="#1E2939"/>
</linearGradient>
</defs>
</svg>
